Coordinates
version=1
nRows=12
nColumns=19
inDegrees=yes

Units are S.I. units (second, meters, Newtons, ...)
If the header above contains a line with 'inDegrees', this indicates whether rotational values are in degrees (yes) or radians (no).

endheader
time	pelvis_tilt	pelvis_list	pelvis_rotation	pelvis_tx	pelvis_ty	pelvis_tz	hip_flexion_r	hip_adduction_r	hip_rotation_r	knee_angle_r	knee_angle_r_beta	ankle_angle_r	hip_flexion_l	hip_adduction_l	hip_rotation_l	knee_angle_l	knee_angle_l_beta	ankle_angle_l
     12.94000000	      3.64300088	      7.69139859	      5.39181686	      2.14483718	      1.05194289	      1.01380988	    -17.91197373	     -7.25936521	    -15.24029268	     54.92264987	      0.95858107	    -12.27784308	     17.29332132	     11.81587342	     -1.95676295	     25.73484030	      0.44915770	     -0.32027798
     12.94666667	      4.19501349	      8.02090174	      5.64510104	      2.14371967	      1.04685019	      1.01360344	    -17.30210166	     -7.28706741	    -14.06079361	     58.20767108	      1.01591551	    -11.77013974	     16.87022723	     12.21728484	     -1.90668898	     27.84636589	      0.48601077	      1.46676133
     12.95333333	      4.50727064	      8.24898900	      6.01658453	      2.14232840	      1.04125777	      1.01333253	    -16.36299027	     -7.24690847	    -13.12563400	     61.53301543	      1.07395372	    -11.25834553	     16.75305314	     12.56354764	     -1.69915428	     30.11956009	      0.52568549	      3.51334194
     12.96000000	      5.28214018	      8.71449797	      6.42194875	      2.14086872	      1.03603050	      1.01311222	    -16.02815385	     -7.44487807	    -12.59986235	     64.67004428	      1.12870520	    -10.79044628	     16.00664943	     13.13843386	     -1.34857982	     32.26041308	      0.56305043	      5.69266388
     12.96666667	      5.37465979	      8.90315428	      6.88723133	      2.13915753	      1.03007811	      1.01282715	    -14.77760369	     -7.46167193	    -12.01182692	     67.90954176	      1.18524510	    -10.30930585	     16.09993393	     13.47275354	     -1.00366095	     34.57417594	      0.60343321	      7.87958549
     12.97333333	      6.08865075	      9.37884379	      7.27306934	      2.13741395	      1.02496605	      1.01266113	    -14.30263862	     -7.80541348	    -11.73730549	     70.89152066	      1.23729045	     -9.95115013	     15.30386460	     14.03827682	     -0.58343256	     36.54319283	      0.63779903	     10.07302845
     12.98000000	      5.85164245	      9.56633713	      7.79377819	      2.13542470	      1.01895711	      1.01232206	    -12.60833118	     -8.02077310	    -11.41234488	     74.01680142	      1.29183689	     -9.46299181	     15.64177121	     14.41051819	     -0.13850145	     38.66084659	      0.67475906	     12.10199097
     12.98666667	      5.90666706	      9.86791709	      8.19832346	      2.13340627	      1.01359828	      1.01209104	    -11.23825890	     -8.41528183	    -11.14434826	     76.93518681	      1.34277232	     -9.00804966	     15.51235353	     14.82990206	      0.25668467	     40.49588313	      0.70678649	     14.02267961
     12.99333333	      5.89663035	     10.11424530	      8.55204824	      2.13129479	      1.00858714	      1.01190478	     -9.71678574	     -8.84650981	    -10.87420287	     79.73833104	      1.39169642	     -8.61604232	     15.36992385	     15.16369781	      0.63111330	     42.14862573	      0.73563229	     15.78697024
     13.00000000	      6.51232292	     10.43223975	      8.81653203	      2.12900891	      1.00482963	      1.01182158	     -8.88543809	     -9.26455500	    -10.63430072	     82.21046841	      1.43484335	     -8.39665998	     14.37519751	     15.47260299	      1.13333710	     43.48145136	      0.75889449	     17.22264926
     13.00666667	      5.79396845	     10.70250227	      9.05342026	      2.12703862	      0.99984973	      1.01158496	     -6.44056749	    -10.07779127	    -10.24541511	     84.90072407	      1.48179717	     -7.83404433	     14.80332508	     15.85467175	      1.29866285	     44.73217204	      0.78072368	     18.71232305
     13.01333333	      6.16474080	     10.83838770	      9.21980982	      2.12497074	      0.99671659	      1.01150155	     -5.21521985	    -10.49584140	     -9.94555387	     87.06264948	      1.51952989	     -7.51721021	     13.88622755	     15.91135575	      1.67793366	     45.70535458	      0.79770892	     20.08899177
